<svg width="156" height="196" viewBox="0 0 156 196" fill="none" xmlns="http://www.w3.org/2000/svg">
    <path
        d="M31.8155 185.463C31.5433 185.476 31.2737 185.404 31.0435 185.258C30.8132 185.112 30.6333 184.899 30.5282 184.648C30.4231 184.397 30.3977 184.119 30.4557 183.853C30.5137 183.586 30.6521 183.344 30.8522 183.159C30.8857 183.026 30.9098 182.93 30.9433 182.797C30.9313 182.768 30.9192 182.739 30.9071 182.71C30.6328 182.062 30.1732 181.51 29.5861 181.123C28.9989 180.735 28.3103 180.53 27.6068 180.532C26.9034 180.535 26.2163 180.745 25.632 181.137C25.0478 181.529 24.5923 182.085 24.3229 182.735C23.246 185.328 21.8749 187.926 21.5373 190.669C21.3887 191.881 21.4514 193.11 21.7227 194.3C19.1934 188.783 17.88 182.786 17.8715 176.717C17.871 175.194 17.9556 173.672 18.125 172.158C18.265 170.917 18.4592 169.685 18.7076 168.462C20.0633 161.825 22.9739 155.605 27.2005 150.311C29.2462 149.195 30.9005 147.479 31.9407 145.393C32.3175 144.644 32.5838 143.843 32.7313 143.018C32.5006 143.048 32.266 143.067 32.0353 143.082C31.9634 143.086 31.8877 143.089 31.8158 143.093L31.7887 143.094C31.5351 143.106 31.2836 143.044 31.0645 142.915C30.8454 142.787 30.668 142.598 30.5537 142.372C30.4395 142.145 30.3931 141.89 30.4204 141.638C30.4476 141.385 30.5472 141.146 30.7072 140.949C30.8068 140.826 30.9065 140.704 31.0063 140.581C31.1576 140.392 31.3127 140.207 31.464 140.018C31.4815 140 31.4979 139.981 31.5132 139.961C31.6872 139.745 31.8612 139.533 32.0353 139.318C31.7176 138.825 31.2904 138.412 30.7868 138.111C29.0429 137.089 26.6368 137.797 25.3771 139.374C24.1136 140.952 23.8752 143.165 24.314 145.136C24.7456 146.813 25.4594 148.405 26.425 149.842C26.3304 149.963 26.232 150.08 26.1375 150.202C24.4086 152.425 22.9018 154.812 21.6386 157.329C21.9458 154.509 21.5791 151.657 20.5688 149.006C19.5449 146.536 17.6257 144.456 15.9356 142.32C13.9055 139.755 9.74262 140.875 9.38496 144.126C9.3815 144.158 9.37812 144.189 9.37482 144.221C9.62586 144.362 9.87159 144.512 10.112 144.671C10.4141 144.873 10.6481 145.162 10.7835 145.499C10.9189 145.836 10.9492 146.206 10.8707 146.561C10.7921 146.915 10.6082 147.238 10.3431 147.486C10.0781 147.735 9.74413 147.897 9.38512 147.952L9.34836 147.958C9.43779 148.863 9.59587 149.76 9.82123 150.64C10.4742 153.099 11.6282 155.397 13.2107 157.389C14.7933 159.381 16.7703 161.024 19.0178 162.216C19.1653 162.292 19.3091 162.368 19.4566 162.44C18.1875 166.036 17.3914 169.783 17.0885 173.584C16.9169 175.828 16.927 178.081 17.1187 180.322L17.1074 180.243C16.6231 177.75 15.2935 175.501 13.3432 173.876C10.4465 171.496 6.35401 170.62 3.22898 168.707C2.89686 168.494 2.51069 168.38 2.11601 168.379C1.72133 168.378 1.33462 168.49 1.00147 168.702C0.668317 168.913 0.402621 169.216 0.235732 169.574C0.0688427 169.931 0.00771456 170.329 0.059557 170.72C0.0637482 170.748 0.0680152 170.776 0.0723438 170.804C0.538193 170.994 0.991769 171.212 1.43044 171.458C1.68148 171.6 1.92721 171.75 2.16764 171.909C2.46969 172.111 2.70373 172.399 2.8391 172.737C2.97447 173.074 3.00487 173.444 2.92629 173.798C2.84772 174.153 2.66385 174.476 2.39877 174.724C2.13369 174.973 1.79975 175.135 1.44073 175.19L1.40395 175.196C1.37746 175.2 1.35477 175.204 1.32833 175.207C2.12429 177.108 3.24147 178.857 4.6309 180.379C6.34733 182.221 8.42185 183.692 10.7273 184.704C13.0327 185.716 15.5205 186.246 18.038 186.261H18.0418C18.7252 189.231 19.7154 192.122 20.9964 194.887H31.551C31.5889 194.77 31.6229 194.648 31.657 194.531C30.68 194.593 29.6992 194.534 28.7364 194.357C29.5195 193.396 30.3026 192.428 31.0857 191.467C31.1032 191.449 31.1196 191.43 31.1349 191.41C31.5321 190.918 31.9331 190.43 32.3303 189.939L32.3305 189.938C32.3517 188.43 32.1787 186.927 31.8158 185.463L31.8155 185.463Z"
        fill="#F2F2F2" />
    <path
        d="M124.184 185.463C124.457 185.476 124.726 185.404 124.957 185.258C125.187 185.112 125.367 184.899 125.472 184.648C125.577 184.397 125.602 184.119 125.544 183.853C125.486 183.586 125.348 183.344 125.148 183.159C125.114 183.026 125.09 182.93 125.057 182.797C125.069 182.768 125.081 182.739 125.093 182.71C125.367 182.062 125.827 181.51 126.414 181.123C127.001 180.735 127.69 180.53 128.393 180.532C129.097 180.535 129.784 180.745 130.368 181.137C130.952 181.529 131.408 182.085 131.677 182.735C132.754 185.328 134.125 187.926 134.463 190.669C134.611 191.881 134.549 193.11 134.277 194.3C136.807 188.783 138.12 182.786 138.128 176.717C138.129 175.194 138.044 173.672 137.875 172.158C137.735 170.917 137.541 169.685 137.292 168.462C135.937 161.825 133.026 155.605 128.799 150.311C126.754 149.195 125.099 147.479 124.059 145.393C123.683 144.644 123.416 143.843 123.269 143.018C123.499 143.048 123.734 143.067 123.965 143.082C124.037 143.086 124.112 143.089 124.184 143.093L124.211 143.094C124.465 143.106 124.716 143.044 124.935 142.915C125.155 142.787 125.332 142.598 125.446 142.372C125.561 142.145 125.607 141.89 125.58 141.638C125.552 141.385 125.453 141.146 125.293 140.949C125.193 140.826 125.094 140.704 124.994 140.581C124.842 140.392 124.687 140.207 124.536 140.018C124.519 140 124.502 139.981 124.487 139.961C124.313 139.745 124.139 139.533 123.965 139.318C124.282 138.825 124.71 138.412 125.213 138.111C126.957 137.089 129.363 137.797 130.623 139.374C131.886 140.952 132.125 143.165 131.686 145.136C131.254 146.813 130.541 148.405 129.575 149.842C129.67 149.963 129.768 150.08 129.863 150.202C131.591 152.425 133.098 154.812 134.361 157.329C134.054 154.509 134.421 151.657 135.431 149.006C136.455 146.536 138.374 144.456 140.064 142.32C142.095 139.755 146.257 140.875 146.615 144.126C146.619 144.158 146.622 144.189 146.625 144.221C146.374 144.362 146.128 144.512 145.888 144.671C145.586 144.873 145.352 145.162 145.217 145.499C145.081 145.836 145.051 146.206 145.129 146.561C145.208 146.915 145.392 147.238 145.657 147.486C145.922 147.735 146.256 147.897 146.615 147.952L146.652 147.958C146.562 148.863 146.404 149.76 146.179 150.64C145.526 153.099 144.372 155.397 142.789 157.389C141.207 159.381 139.23 161.024 136.982 162.216C136.835 162.292 136.691 162.368 136.543 162.44C137.813 166.036 138.609 169.783 138.912 173.584C139.083 175.828 139.073 178.081 138.881 180.322L138.893 180.243C139.377 177.75 140.706 175.501 142.657 173.876C145.554 171.496 149.646 170.62 152.771 168.707C153.103 168.494 153.489 168.38 153.884 168.379C154.279 168.378 154.665 168.49 154.999 168.702C155.332 168.913 155.597 169.216 155.764 169.574C155.931 169.931 155.992 170.329 155.94 170.72C155.936 170.748 155.932 170.776 155.928 170.804C155.462 170.994 155.008 171.212 154.57 171.458C154.319 171.6 154.073 171.75 153.832 171.909C153.53 172.111 153.296 172.399 153.161 172.737C153.026 173.074 152.995 173.444 153.074 173.798C153.152 174.153 153.336 174.476 153.601 174.724C153.866 174.973 154.2 175.135 154.559 175.19L154.596 175.196C154.623 175.2 154.645 175.204 154.672 175.207C153.876 177.108 152.759 178.857 151.369 180.379C149.653 182.221 147.578 183.692 145.273 184.704C142.967 185.716 140.48 186.246 137.962 186.261H137.958C137.275 189.231 136.285 192.122 135.004 194.887H124.449C124.411 194.77 124.377 194.648 124.343 194.531C125.32 194.593 126.301 194.534 127.264 194.357C126.48 193.396 125.697 192.428 124.914 191.467C124.897 191.449 124.88 191.43 124.865 191.41C124.468 190.918 124.067 190.43 123.67 189.939L123.669 189.938C123.648 188.43 123.821 186.927 124.184 185.463L124.184 185.463Z"
        fill="#F2F2F2" />
    <path d="M35.1757 189.275L38.2613 190.589L44.8016 179.314L40.2474 177.374L35.1757 189.275Z" fill="#A0616A" />
    <path d="M60.674 192.195L64.0278 192.194L65.6236 179.257L60.6732 179.258L60.674 192.195Z" fill="#A0616A" />
    <path
        d="M60.5558 195.694L70.8698 195.693V195.563C70.8697 194.498 70.4467 193.477 69.6939 192.724C68.941 191.971 67.92 191.548 66.8553 191.548H66.8551L64.9711 190.119L61.456 191.549L60.5557 191.549L60.5558 195.694Z"
        fill="#2F2E41" />
    <path
        d="M33.2997 191.514L42.788 195.558L42.8391 195.438C43.2565 194.458 43.2677 193.353 42.8703 192.365C42.4729 191.378 41.6994 190.588 40.72 190.171L40.7198 190.171L39.547 188.117L35.7529 188.054L34.9247 187.701L33.2997 191.514Z"
        fill="#2F2E41" />
    <path
        d="M63.9639 115.629L69.0612 146.667L67.674 151.293L69.4944 154.568L66.8211 183.337L67.9063 185.726L64.8744 187.596H58.7051L58.3777 161.551L56.8538 157.728V155.62L53.7515 139.739L53.4206 159.461L52.4302 161.372L43.5576 184.598H36.6398L37.1748 180.476C35.9354 179.849 39.0357 178.015 39.3336 176.658L38.315 174.366L39.3336 170.037L41.6798 157.997L39.2826 143.721L40.1412 134.533L39.6941 131.39L39.728 130.373C39.728 130.373 40.9105 129.917 39.7813 128.778C38.2179 119.916 40.1412 117.993 40.1412 117.993L47.8386 113.488L63.9639 115.629Z"
        fill="#2F2E41" />
    <path
        d="M51.5504 74.7534C55.4114 74.7534 58.5414 71.6234 58.5414 67.7624C58.5414 63.9014 55.4114 60.7715 51.5504 60.7715C47.6894 60.7715 44.5594 63.9014 44.5594 67.7624C44.5594 71.6234 47.6894 74.7534 51.5504 74.7534Z"
        fill="#A0616A" />
    <path
        d="M42.7855 54.3515C42.8185 54.7523 42.7632 55.1555 42.6235 55.5327C42.4837 55.9098 42.263 56.2517 41.9769 56.5343C41.6907 56.817 41.3461 57.0334 40.9672 57.1684C40.5884 57.3034 40.1846 57.3537 39.7842 57.3158L35.7222 66.2083L33.0265 61.9021L37.2971 54.1178C37.4055 53.4494 37.7552 52.844 38.2801 52.4162C38.805 51.9885 39.4686 51.7681 40.1451 51.7969C40.8216 51.8257 41.4641 52.1017 41.9507 52.5725C42.4373 53.0433 42.7344 53.6763 42.7855 54.3515Z"
        fill="#A0616A" />
    <path
        d="M64.4221 116.298C64.4367 116.402 64.4256 116.509 64.39 116.609C64.3544 116.708 64.2953 116.798 64.2176 116.87C64.14 116.942 64.0461 116.994 63.944 117.022C63.8419 117.049 63.7346 117.052 63.6312 117.03C59.971 116.239 44.8664 118.137 39.8635 123.235C39.7688 123.333 39.6464 123.399 39.5129 123.424C39.3794 123.45 39.2413 123.434 39.1174 123.378C38.9936 123.322 38.8899 123.229 38.8207 123.112C38.7514 122.995 38.7199 122.86 38.7305 122.724C38.8187 121.628 40.4116 116.669 40.4116 116.669L40.8972 113.579C40.9082 113.507 40.9082 113.434 40.8972 113.362L40.4521 110.805C40.4279 110.672 40.3638 110.549 40.2681 110.452L40.1173 110.301C39.9936 110.177 39.9242 110.009 39.9242 109.834C39.9242 109.659 39.9936 109.491 40.1173 109.367L40.7022 108.786C40.7731 108.713 40.8268 108.625 40.8592 108.529C40.8917 108.433 40.9022 108.331 40.8898 108.23L40.1136 102.492C40.1099 102.481 40.1099 102.466 40.1063 102.455L36.6778 84.3485C36.6512 84.2055 36.6725 84.0577 36.7383 83.9281C36.8041 83.7984 36.9108 83.694 37.042 83.6311L42.8689 80.8464C42.9294 80.8183 42.9853 80.7811 43.0345 80.736L47.1031 76.9617C47.2243 76.8518 47.3809 76.7892 47.5445 76.7852L54.8577 76.73C54.9592 76.73 55.0593 76.7531 55.1505 76.7978C55.2417 76.8424 55.3214 76.9073 55.3837 76.9875L57.6093 79.8826C57.6884 79.9848 57.7959 80.0616 57.9183 80.1033L59.4265 80.6146L63.782 82.0934L63.9844 82.1633C64.1095 82.2066 64.2186 82.2866 64.2973 82.393C64.3761 82.4993 64.4209 82.627 64.4258 82.7593C64.4289 82.7787 64.4301 82.7984 64.4295 82.8181L63.3406 105.354C63.3374 105.453 63.3549 105.552 63.3921 105.644L63.9145 106.862C63.9665 106.985 63.98 107.122 63.9531 107.253C63.9262 107.384 63.8601 107.504 63.7636 107.597C63.6091 107.745 63.4326 107.914 63.3222 108.039C63.0978 108.285 63.576 110.239 63.6496 110.522C63.6563 110.546 63.6612 110.571 63.6643 110.596L63.9329 112.615C63.9485 112.734 63.9313 112.854 63.8834 112.964C63.8354 113.074 63.7584 113.168 63.6607 113.237C63.5863 113.29 63.5238 113.358 63.4772 113.436C63.4305 113.515 63.4007 113.602 63.3896 113.693C63.3785 113.784 63.3864 113.875 63.4128 113.963C63.4392 114.05 63.4835 114.131 63.5429 114.201L64.1315 114.896C64.2118 114.994 64.2639 115.112 64.2824 115.238L64.4221 116.298Z"
        fill="#E15829" />
    <path
        d="M49.7619 74.4108C49.7321 74.3451 49.7023 74.2791 49.6726 74.2129C49.6841 74.2133 49.6954 74.2149 49.7068 74.2152L49.7619 74.4108Z"
        fill="#2F2E41" />
    <path
        d="M74.6536 113.997C74.6876 113.597 74.6333 113.193 74.4946 112.816C74.3558 112.438 74.136 112.096 73.8506 111.813C73.5651 111.529 73.221 111.312 72.8425 111.176C72.464 111.04 72.0603 110.989 71.6598 111.025L67.6207 102.123L64.9139 106.422L69.1646 114.217C69.2712 114.886 69.6194 115.492 70.1432 115.921C70.667 116.35 71.33 116.572 72.0066 116.545C72.6832 116.518 73.3264 116.244 73.8142 115.774C74.3021 115.305 74.6007 114.672 74.6536 113.997Z"
        fill="#A0616A" />
    <path
        d="M69.1786 104.651L68.9542 105.07L66.5888 109.492L66.2577 110.11L63.9475 106.928L56.3658 96.488L57.4437 89.94L59.4265 81.7366L62.3657 81.5674L64.4258 82.4098C65.3033 82.7974 66.023 83.4717 66.4668 84.3221C66.9106 85.1725 67.0522 86.1485 66.8684 87.09L65.0438 96.4328L69.1786 104.651Z"
        fill="#E15829" />
    <path
        d="M57.6368 61.472C57.5323 60.8913 57.2984 60.3415 56.9525 59.8634C56.7783 59.6563 56.5623 59.4883 56.3187 59.3704C56.0751 59.2524 55.8094 59.1872 55.5389 59.179C55.2684 59.1708 54.9992 59.2197 54.7489 59.3226C54.4986 59.4256 54.2728 59.5801 54.0864 59.7762C54.1957 59.4585 54.2275 59.1192 54.1791 58.7867C53.6685 59.0316 53.1224 59.194 52.561 59.2679L53.8015 57.9727L47.6262 58.54C46.9889 58.5986 46.2997 58.6815 45.8317 59.1657C45.3637 59.6499 45.3377 60.6833 45.9293 60.9533C44.7636 60.5143 43.4251 61.1515 42.6561 62.219C41.8871 63.2865 41.6039 64.6946 41.5519 66.0606C41.4846 67.832 41.8147 69.7179 42.8959 71.022C43.603 71.8748 44.567 72.4066 45.3495 73.1738L45.3729 73.1969C46.2299 74.0759 47.3042 74.7124 48.4867 75.0418C49.6693 75.3712 50.9179 75.3818 52.1059 75.0725C52.2393 75.0358 52.3718 74.9951 52.5049 74.9572C53.1704 75.2582 53.9992 74.8467 54.4193 74.1774C54.8672 73.4638 54.9557 72.5507 54.9746 71.6809C54.9995 70.5435 54.9294 69.4059 54.7651 68.2801C54.5799 67.0123 54.413 65.3887 55.4171 64.7519C56.1988 64.2561 57.1701 64.7454 57.957 65.2308C58.0326 63.969 57.9248 62.7029 57.6368 61.472Z"
        fill="#2F2E41" />
    <path
        d="M42.7297 93.8354L38.0715 93.4992L29.9869 83.601L23.9857 74.9992L25.3678 71.5024L31.9007 62.1432L31.833 61.3347L32.5559 61.2044L32.5687 60.2311L33.1688 60.3264L34.7759 58.0239L38.4546 60.9668L36.3741 67.0783L36.2474 68.3241L35.5276 69.5649L35.8795 71.2671L34.5038 72.5725L33.8415 74.5183C36.699 76.3976 39.409 79.2092 42.0512 82.728L42.7297 93.8354Z"
        fill="#E15829" />
    <path
        d="M106.214 104.6L105.709 109.283L106.006 115.424L92.4041 113.808L91.1257 104.6L92.7543 104.616L106.214 104.6Z"
        fill="#FFB6B6" />
    <path
        d="M94.3704 89.2087L97.6026 87.2694L99.1522 84.8779L103.934 85.6137L109.78 89.5325L109.723 98.4204L106.099 107.639L90.9074 105.699L90.3302 102.448C90.3302 102.448 86.1284 96.8044 90.6534 93.5722L94.3704 89.2087Z"
        fill="#E15829" />
    <path
        d="M74.9712 62.8173C74.818 63.1439 74.7383 63.5001 74.7377 63.8608C74.7371 64.2215 74.8155 64.5779 74.9676 64.905C75.1196 65.2321 75.3415 65.5219 75.6177 65.754C75.8938 65.986 76.2175 66.1547 76.5659 66.2481L87.0893 86.1041L91.337 82.8258L79.6571 64.3388C79.7753 63.7432 79.6708 63.1248 79.3636 62.601C79.0563 62.0772 78.5675 61.6843 77.9899 61.4967C77.4123 61.3092 76.786 61.34 76.2296 61.5834C75.6732 61.8268 75.2255 62.2659 74.9712 62.8173Z"
        fill="#FFB6B6" />
    <path
        d="M92.2336 92.8135C92.2336 92.8135 91.2584 93.6784 89.8716 91.2903C88.7614 89.3784 83.2245 80.8174 82.4405 77.8497C82.0105 77.8619 81.5886 77.7306 81.2414 77.4765C80.8942 77.2225 80.6413 76.8602 80.5227 76.4466L86.4702 74.1382C87.763 74.7846 87.4042 75.6806 87.0764 76.1441L89.2914 79.4666L96.6591 87.7349L92.9495 92.2009L92.2336 92.8135Z"
        fill="#E15829" />
    <path d="M113.269 189.626H110.296L108.88 178.155H113.269V189.626Z" fill="#FFB6B6" />
    <path
        d="M114.839 194.778H112.706L112.326 192.765L111.351 194.778H105.694C105.423 194.778 105.159 194.692 104.941 194.531C104.722 194.37 104.561 194.144 104.48 193.885C104.4 193.626 104.404 193.348 104.492 193.092C104.581 192.836 104.749 192.614 104.972 192.46L109.489 189.341V187.305L114.24 187.589L114.839 194.778Z"
        fill="#2F2E41" />
    <path d="M96.5647 189.626H93.5908L92.1753 178.155H96.5647V189.626Z" fill="#FFB6B6" />
    <path
        d="M98.1342 194.778H96.0015L95.6208 192.765L94.6458 194.778H88.9895C88.7183 194.778 88.4543 194.692 88.2359 194.531C88.0175 194.37 87.8562 194.144 87.7755 193.885C87.6948 193.626 87.699 193.348 87.7874 193.092C87.8758 192.836 88.0439 192.614 88.267 192.46L92.784 189.341V187.305L97.5351 187.589L98.1342 194.778Z"
        fill="#2F2E41" />
    <path
        d="M114.552 179.734H114.52L113.948 161.083C114.318 160.369 114.506 159.574 114.495 158.77C114.484 157.966 114.274 157.177 113.884 156.474L113.802 156.326L114.015 155.342C114.287 154.077 114.162 152.759 113.656 151.569L113.123 134.171C115.029 121.817 105.945 113.761 105.945 113.761H92.3362L91.3637 117.102L90.3235 117.986L90.7173 119.323L89.5878 120.929L89.4146 123.799C87.4832 142.616 87.8336 160.953 90.8985 178.718L90.815 178.76C90.6565 178.848 90.5381 178.994 90.4845 179.168C90.4308 179.341 90.4459 179.529 90.5267 179.691C90.6683 180.101 91.027 180.35 91.3279 180.246L98.5147 179.996C98.6732 179.908 98.7916 179.762 98.8452 179.588C98.8989 179.415 98.8838 179.227 98.803 179.065C98.6614 178.655 98.3027 178.406 98.0018 178.51L97.5131 178.757L98.5553 160.76L98.4396 157.473L98.6779 153.743L99.7795 136.968L103.949 157.597L108.208 179.941C108.091 180.048 108.009 180.187 107.972 180.341C107.935 180.495 107.947 180.657 108.004 180.805C108.061 180.953 108.162 181.08 108.293 181.169C108.423 181.258 108.578 181.306 108.737 181.305H114.552C114.761 181.305 114.961 181.223 115.108 181.075C115.256 180.928 115.338 180.728 115.338 180.52C115.338 180.311 115.256 180.111 115.108 179.964C114.961 179.816 114.761 179.734 114.552 179.734Z"
        fill="#2F2E41" />
    <path
        d="M129.456 121.435C129.599 121.104 129.669 120.746 129.659 120.385C129.649 120.025 129.56 119.671 129.399 119.348C129.237 119.026 129.007 118.742 128.724 118.518C128.441 118.295 128.113 118.135 127.762 118.052L116.663 98.5117L112.513 101.913L124.728 120.051C124.627 120.65 124.749 121.265 125.072 121.779C125.394 122.294 125.894 122.672 126.477 122.843C127.06 123.014 127.685 122.965 128.234 122.705C128.783 122.445 129.218 121.994 129.456 121.435Z"
        fill="#FFB6B6" />
    <path
        d="M108.855 89.5188C108.855 89.5188 109.805 88.6259 111.261 90.9725C112.426 92.8511 120.681 103.683 121.551 106.627C121.981 106.602 122.406 106.721 122.761 106.965C123.115 107.209 123.378 107.564 123.509 107.973L117.632 110.454C116.32 109.846 115.71 108.708 116.024 108.235L113.713 104.979L105.048 94.9754L108.157 90.1521L108.855 89.5188Z"
        fill="#E15829" />
    <path
        d="M152.781 195.429C152.781 195.504 152.766 195.578 152.738 195.648C152.709 195.717 152.667 195.78 152.614 195.833C152.561 195.886 152.498 195.929 152.428 195.957C152.359 195.986 152.284 196 152.209 196H0.630336C0.478798 196 0.333465 195.94 0.226311 195.833C0.119158 195.726 0.05896 195.58 0.05896 195.429C0.05896 195.277 0.119158 195.132 0.226311 195.025C0.333465 194.918 0.478798 194.857 0.630336 194.857H152.209C152.284 194.857 152.359 194.872 152.428 194.9C152.498 194.929 152.561 194.971 152.614 195.024C152.667 195.077 152.709 195.14 152.738 195.21C152.766 195.279 152.781 195.354 152.781 195.429Z"
        fill="#CCCCCC" />
    <path
        d="M96.828 71.9794C94.8492 75.8796 96.1418 80.3973 99.8138 82.773C103.784 85.3419 108.94 84.7794 110.607 79.7872C112.464 74.2278 110.939 71.8428 107.622 68.9936C103.734 65.6546 98.966 67.7653 96.828 71.9794Z"
        fill="#2F2E41" />
    <path
        d="M106.569 80.6678C105.561 81.9875 104.071 82.8534 102.426 83.0752C100.78 83.297 99.1142 82.8566 97.7933 81.8508C96.4723 80.845 95.6047 79.356 95.3808 77.7108C95.157 76.0657 95.5953 74.399 96.5995 73.0769L96.6539 73.0055C97.6801 71.7209 99.1701 70.8913 100.803 70.6955C102.435 70.4997 104.079 70.9534 105.38 71.9588C106.681 72.9641 107.534 74.4406 107.756 76.0696C107.979 77.6986 107.551 79.3497 106.567 80.6667L106.569 80.6678Z"
        fill="#FFB6B6" />
    <path
        d="M94.9103 71.3477C95.9285 72.3165 97.1696 73.0197 98.5239 73.3953C98.7954 73.0812 99.1172 72.8145 99.4763 72.606C99.3044 72.9636 99.1866 73.3447 99.1268 73.7369C99.7308 74.9905 102.198 75.8915 104.556 76.8131L107.679 71.3014L103.545 68.959C100.223 66.6626 96.3132 67.6427 94.9103 71.3477Z"
        fill="#2F2E41" />
    <path
        d="M110.035 69.0006C110.336 68.8895 110.661 68.8556 110.979 68.902C111.297 68.9485 111.598 69.0737 111.855 69.2664C112.358 69.649 112.765 70.1439 113.043 70.7117C113.549 71.6303 113.912 72.6203 114.121 73.6479C114.299 74.537 114.269 75.6118 113.471 76.0757C112.806 76.4629 111.854 76.2191 111.242 75.7025C110.675 75.1604 110.245 74.4915 109.987 73.7507C109.734 73.0152 109.359 72.3279 108.876 71.7178L109.427 71.975C109.253 71.4462 109.172 70.8911 109.187 70.3345C109.2 70.0576 109.285 69.7887 109.434 69.5547C109.582 69.3207 109.79 69.1297 110.035 69.0006Z"
        fill="#2F2E41" />
    <path
        d="M102.885 69.7227L107.32 72.2356C107.914 72.5721 108.435 73.0222 108.855 73.5603C109.275 74.0984 109.585 74.7139 109.767 75.3717C109.949 76.0295 109.999 76.7166 109.916 77.394C109.832 78.0713 109.616 78.7256 109.279 79.3194C108.29 81.0659 106.684 82.3806 104.777 83.0066C102.869 83.6325 100.797 83.5248 98.9647 82.7044L103.017 79.1269L97.5197 81.928L96.3459 81.2629C102.242 80.1908 103.379 75.5659 102.885 69.7227Z"
        fill="#2F2E41" />
    <path d="M60.0571 0L45.4668 24.2912L60.1067 32.9346L60.0571 0Z" fill="#8C8C8C" />
    <path d="M74.7113 24.2912L60.057 0L60.1067 32.9346L74.7113 24.2912Z" fill="#333333" />
    <path d="M45.4668 24.2911L60.0891 17.6265L60.1067 32.9344L45.4668 24.2911Z" fill="#383838" />
    <path d="M74.7113 24.2911L60.089 17.6265L60.1206 32.3749L74.7113 24.2911Z" fill="#141414" />
    <path d="M74.6755 27.0732L60.0709 35.7166V47.6387L74.6755 27.0732Z" fill="#333333" />
    <path d="M45.4659 27.0732L60.0709 35.7166V47.6387L45.4659 27.0732Z" fill="#8C8C8C" />
</svg>