<svg width="121" height="18" viewBox="0 0 121 18" fill="none" xmlns="http://www.w3.org/2000/svg">
    <path
        d="M15.612 8.892C15.612 10.164 15.396 11.336 14.964 12.408C14.54 13.472 13.936 14.388 13.152 15.156C12.376 15.924 11.44 16.524 10.344 16.956C9.248 17.388 8.032 17.604 6.696 17.604H0V0.192H6.696C8.032 0.192 9.248 0.408 10.344 0.840001C11.44 1.272 12.376 1.876 13.152 2.652C13.936 3.42 14.54 4.336 14.964 5.4C15.396 6.464 15.612 7.628 15.612 8.892ZM11.916 8.892C11.916 7.98 11.796 7.16 11.556 6.432C11.316 5.704 10.972 5.088 10.524 4.584C10.076 4.08 9.528 3.692 8.88 3.42C8.24 3.148 7.512 3.012 6.696 3.012H3.624V14.784H6.696C7.512 14.784 8.24 14.652 8.88 14.388C9.528 14.116 10.076 13.728 10.524 13.224C10.972 12.712 11.316 12.092 11.556 11.364C11.796 10.636 11.916 9.812 11.916 8.892Z"
        fill="#E15829" />
    <path
        d="M26.8873 10.992L25.0033 5.664C24.8913 5.384 24.7713 5.056 24.6433 4.68C24.5233 4.304 24.4073 3.896 24.2953 3.456C24.1833 3.904 24.0633 4.32 23.9353 4.704C23.8153 5.08 23.6993 5.408 23.5873 5.688L21.7153 10.992H26.8873ZM32.9353 17.604H30.1393C29.8273 17.604 29.5713 17.532 29.3713 17.388C29.1793 17.236 29.0353 17.044 28.9393 16.812L27.7633 13.488H20.8273L19.6513 16.812C19.5713 17.012 19.4313 17.196 19.2313 17.364C19.0313 17.524 18.7793 17.604 18.4753 17.604H15.6553L22.4593 0.192H26.1433L32.9353 17.604Z"
        fill="#E15829" />
    <path
        d="M43.9789 3.528C43.8669 3.712 43.7509 3.848 43.6309 3.936C43.5189 4.016 43.3709 4.056 43.1869 4.056C43.0109 4.056 42.8189 3.996 42.6109 3.876C42.4109 3.748 42.1749 3.612 41.9029 3.468C41.6309 3.324 41.3189 3.192 40.9669 3.072C40.6149 2.944 40.2029 2.88 39.7309 2.88C38.8989 2.88 38.2749 3.068 37.8589 3.444C37.4429 3.812 37.2349 4.296 37.2349 4.896C37.2349 5.28 37.3469 5.6 37.5709 5.856C37.8029 6.104 38.1029 6.32 38.4709 6.504C38.8469 6.688 39.2709 6.852 39.7429 6.996C40.2149 7.14 40.6989 7.3 41.1949 7.476C41.6909 7.644 42.1749 7.844 42.6469 8.076C43.1189 8.308 43.5389 8.6 43.9069 8.952C44.2829 9.304 44.5829 9.736 44.8069 10.248C45.0389 10.752 45.1549 11.368 45.1549 12.096C45.1549 12.888 45.0149 13.632 44.7349 14.328C44.4629 15.016 44.0669 15.62 43.5469 16.14C43.0269 16.652 42.3829 17.056 41.6149 17.352C40.8549 17.648 39.9909 17.796 39.0229 17.796C38.4709 17.796 37.9189 17.74 37.3669 17.628C36.8229 17.516 36.2949 17.36 35.7829 17.16C35.2789 16.96 34.8029 16.72 34.3549 16.44C33.9069 16.16 33.5149 15.848 33.1789 15.504L34.2349 13.8C34.3229 13.672 34.4389 13.568 34.5829 13.488C34.7269 13.4 34.8789 13.356 35.0389 13.356C35.2549 13.356 35.4829 13.436 35.7229 13.596C35.9629 13.756 36.2389 13.932 36.5509 14.124C36.8629 14.316 37.2229 14.492 37.6309 14.652C38.0469 14.812 38.5429 14.892 39.1189 14.892C39.9589 14.892 40.6069 14.7 41.0629 14.316C41.5269 13.932 41.7589 13.36 41.7589 12.6C41.7589 12.16 41.6429 11.804 41.4109 11.532C41.1869 11.26 40.8909 11.032 40.5229 10.848C40.1549 10.664 39.7349 10.508 39.2629 10.38C38.7909 10.244 38.3069 10.096 37.8109 9.936C37.3149 9.776 36.8309 9.584 36.3589 9.36C35.8869 9.136 35.4669 8.84 35.0989 8.472C34.7309 8.104 34.4309 7.648 34.1989 7.104C33.9749 6.56 33.8629 5.884 33.8629 5.076C33.8629 4.428 33.9909 3.8 34.2469 3.192C34.5029 2.584 34.8789 2.044 35.3749 1.572C35.8709 1.1 36.4789 0.72 37.1989 0.432C37.9269 0.144 38.7589 0 39.6949 0C40.7429 0 41.7109 0.164 42.5989 0.492C43.4949 0.812001 44.2509 1.26 44.8669 1.836L43.9789 3.528Z"
        fill="#E15829" />
    <path
        d="M60.1449 14.844C60.7209 14.844 61.1929 14.776 61.5609 14.64C61.9369 14.496 62.2369 14.308 62.4609 14.076C62.6849 13.844 62.8409 13.58 62.9289 13.284C63.0169 12.98 63.0609 12.668 63.0609 12.348C63.0609 11.996 63.0089 11.68 62.9049 11.4C62.8009 11.12 62.6329 10.884 62.4009 10.692C62.1689 10.492 61.8649 10.34 61.4889 10.236C61.1209 10.132 60.6649 10.08 60.1209 10.08H57.0609V14.844H60.1449ZM57.0609 2.928V7.632H59.4249C59.9289 7.632 60.3769 7.592 60.7689 7.512C61.1609 7.424 61.4889 7.288 61.7529 7.104C62.0169 6.92 62.2169 6.68 62.3529 6.384C62.4969 6.08 62.5689 5.716 62.5689 5.292C62.5689 4.86 62.5089 4.492 62.3889 4.188C62.2769 3.884 62.1009 3.64 61.8609 3.456C61.6209 3.272 61.3169 3.14 60.9489 3.06C60.5809 2.972 60.1449 2.928 59.6409 2.928H57.0609ZM59.6409 0.192C60.8089 0.192 61.8049 0.304 62.6289 0.528C63.4609 0.744001 64.1369 1.056 64.6569 1.464C65.1849 1.864 65.5689 2.352 65.8089 2.928C66.0489 3.504 66.1689 4.148 66.1689 4.86C66.1689 5.26 66.1089 5.644 65.9889 6.012C65.8769 6.38 65.6969 6.728 65.4489 7.056C65.2089 7.376 64.8969 7.668 64.5129 7.932C64.1289 8.196 63.6729 8.42 63.1449 8.604C64.3289 8.884 65.2049 9.34 65.7729 9.972C66.3409 10.604 66.6249 11.424 66.6249 12.432C66.6249 13.168 66.4809 13.852 66.1929 14.484C65.9129 15.116 65.5009 15.664 64.9569 16.128C64.4129 16.592 63.7409 16.956 62.9409 17.22C62.1489 17.476 61.2369 17.604 60.2049 17.604H53.4609V0.192H59.6409Z"
        fill="#E15829" />
    <path
        d="M78.2858 10.992L76.4018 5.664C76.2898 5.384 76.1698 5.056 76.0418 4.68C75.9218 4.304 75.8058 3.896 75.6938 3.456C75.5818 3.904 75.4618 4.32 75.3338 4.704C75.2138 5.08 75.0978 5.408 74.9858 5.688L73.1138 10.992H78.2858ZM84.3338 17.604H81.5378C81.2258 17.604 80.9698 17.532 80.7698 17.388C80.5778 17.236 80.4338 17.044 80.3378 16.812L79.1618 13.488H72.2258L71.0498 16.812C70.9698 17.012 70.8298 17.196 70.6298 17.364C70.4298 17.524 70.1778 17.604 69.8738 17.604H67.0537L73.8577 0.192H77.5418L84.3338 17.604Z"
        fill="#E15829" />
    <path
        d="M95.3773 3.528C95.2653 3.712 95.1493 3.848 95.0293 3.936C94.9173 4.016 94.7693 4.056 94.5853 4.056C94.4093 4.056 94.2173 3.996 94.0093 3.876C93.8093 3.748 93.5733 3.612 93.3013 3.468C93.0293 3.324 92.7173 3.192 92.3653 3.072C92.0133 2.944 91.6013 2.88 91.1293 2.88C90.2973 2.88 89.6733 3.068 89.2573 3.444C88.8413 3.812 88.6333 4.296 88.6333 4.896C88.6333 5.28 88.7453 5.6 88.9693 5.856C89.2013 6.104 89.5013 6.32 89.8693 6.504C90.2453 6.688 90.6693 6.852 91.1413 6.996C91.6133 7.14 92.0973 7.3 92.5933 7.476C93.0893 7.644 93.5733 7.844 94.0453 8.076C94.5173 8.308 94.9373 8.6 95.3053 8.952C95.6813 9.304 95.9813 9.736 96.2053 10.248C96.4373 10.752 96.5533 11.368 96.5533 12.096C96.5533 12.888 96.4133 13.632 96.1333 14.328C95.8613 15.016 95.4653 15.62 94.9453 16.14C94.4253 16.652 93.7813 17.056 93.0133 17.352C92.2533 17.648 91.3893 17.796 90.4213 17.796C89.8693 17.796 89.3173 17.74 88.7653 17.628C88.2213 17.516 87.6933 17.36 87.1813 17.16C86.6773 16.96 86.2013 16.72 85.7533 16.44C85.3053 16.16 84.9133 15.848 84.5773 15.504L85.6333 13.8C85.7213 13.672 85.8373 13.568 85.9813 13.488C86.1253 13.4 86.2773 13.356 86.4373 13.356C86.6533 13.356 86.8813 13.436 87.1213 13.596C87.3613 13.756 87.6373 13.932 87.9493 14.124C88.2613 14.316 88.6213 14.492 89.0293 14.652C89.4453 14.812 89.9413 14.892 90.5173 14.892C91.3573 14.892 92.0053 14.7 92.4613 14.316C92.9253 13.932 93.1573 13.36 93.1573 12.6C93.1573 12.16 93.0413 11.804 92.8093 11.532C92.5853 11.26 92.2893 11.032 91.9213 10.848C91.5533 10.664 91.1333 10.508 90.6613 10.38C90.1893 10.244 89.7053 10.096 89.2093 9.936C88.7133 9.776 88.2293 9.584 87.7573 9.36C87.2853 9.136 86.8653 8.84 86.4973 8.472C86.1293 8.104 85.8293 7.648 85.5973 7.104C85.3733 6.56 85.2613 5.884 85.2613 5.076C85.2613 4.428 85.3893 3.8 85.6453 3.192C85.9013 2.584 86.2773 2.044 86.7733 1.572C87.2693 1.1 87.8773 0.72 88.5973 0.432C89.3253 0.144 90.1573 0 91.0933 0C92.1413 0 93.1093 0.164 93.9973 0.492C94.8933 0.812001 95.6493 1.26 96.2653 1.836L95.3773 3.528Z"
        fill="#E15829" />
    <path d="M102.788 17.604H99.1641V0.192H102.788V17.604Z" fill="#E15829" />
    <path
        d="M118.286 13.32C118.486 13.32 118.654 13.392 118.79 13.536L120.218 15.06C119.514 15.956 118.638 16.636 117.59 17.1C116.55 17.564 115.31 17.796 113.87 17.796C112.566 17.796 111.394 17.576 110.354 17.136C109.314 16.688 108.43 16.068 107.702 15.276C106.974 14.484 106.414 13.544 106.022 12.456C105.63 11.368 105.434 10.18 105.434 8.892C105.434 8.028 105.526 7.208 105.71 6.432C105.902 5.648 106.178 4.928 106.538 4.272C106.898 3.616 107.33 3.024 107.834 2.496C108.346 1.968 108.922 1.52 109.562 1.152C110.202 0.776 110.898 0.492001 111.65 0.300001C112.41 0.1 113.218 0 114.074 0C114.714 0 115.318 0.0560002 115.886 0.168001C116.462 0.280001 116.998 0.436001 117.494 0.636001C117.99 0.836001 118.446 1.08 118.862 1.368C119.286 1.648 119.666 1.956 120.002 2.292L118.79 3.948C118.718 4.052 118.626 4.144 118.514 4.224C118.402 4.304 118.25 4.344 118.058 4.344C117.866 4.344 117.67 4.276 117.47 4.14C117.278 4.004 117.038 3.852 116.75 3.684C116.47 3.516 116.114 3.364 115.682 3.228C115.258 3.092 114.718 3.024 114.062 3.024C113.334 3.024 112.666 3.156 112.058 3.42C111.45 3.684 110.926 4.068 110.486 4.572C110.054 5.068 109.718 5.68 109.478 6.408C109.238 7.136 109.118 7.964 109.118 8.892C109.118 9.828 109.246 10.664 109.502 11.4C109.766 12.128 110.122 12.744 110.57 13.248C111.026 13.752 111.554 14.136 112.154 14.4C112.762 14.656 113.41 14.784 114.098 14.784C114.506 14.784 114.874 14.764 115.202 14.724C115.538 14.684 115.846 14.616 116.126 14.52C116.414 14.424 116.682 14.3 116.93 14.148C117.186 13.996 117.442 13.804 117.698 13.572C117.786 13.5 117.878 13.44 117.974 13.392C118.07 13.344 118.174 13.32 118.286 13.32Z"
        fill="#E15829" />
</svg>